<?xml version="1.0" encoding="UTF-8"?>
<svg id="svg5" xmlns="http://www.w3.org/2000/svg" viewBox="0 0 1010.66 1010.66">
  <defs>
    <style>
      .cls-1 {
        fill: #1d1d1b;
      }

      .cls-1, .cls-2 {
        stroke: #000;
        stroke-miterlimit: 10;
        stroke-width: 20px;
      }
    </style>
  </defs>
  <path class="cls-2" d="M505.33,1000.66c-66.86,0-131.73-13.1-192.81-38.93-58.99-24.95-111.96-60.66-157.44-106.15s-81.2-98.46-106.15-157.44c-25.83-61.08-38.93-125.95-38.93-192.81s13.1-131.73,38.93-192.81c24.95-58.99,60.66-111.96,106.15-157.44,45.49-45.49,98.46-81.2,157.44-106.15,61.08-25.83,125.95-38.93,192.81-38.93s131.73,13.1,192.81,38.93c58.99,24.95,111.96,60.66,157.44,106.15,45.49,45.49,81.2,98.46,106.15,157.44,25.83,61.08,38.93,125.95,38.93,192.81s-13.1,131.73-38.93,192.81c-24.95,58.99-60.66,111.96-106.15,157.44s-98.46,81.2-157.44,106.15c-61.08,25.83-125.95,38.93-192.81,38.93ZM505.33,37.99C247.64,37.99,38,247.63,38,505.32s209.64,467.33,467.33,467.33,467.33-209.65,467.33-467.33S763.02,37.99,505.33,37.99Z"/>
  <g id="layer1">
    <path id="path1009" class="cls-1" d="M208.83,226.46l230.07,307.62-231.52,250.11h52.11l202.7-218.98,163.77,218.98h177.32l-243.02-324.92,215.5-232.81h-52.11l-186.67,201.67-150.83-201.67h-177.32ZM285.46,264.84h81.46l359.72,480.97h-81.46l-359.72-480.97Z"/>
  </g>
</svg>